<svg width="26" height="20" viewBox="0 0 26 20" fill="none" xmlns="http://www.w3.org/2000/svg">
<g clip-path="url(#clip0_26928_779)">
<path d="M25.998 15.9006C25.998 18.1134 24.1863 19.9153 21.9614 19.9153H-0.00195312V4.01447C-0.00195312 1.80164 1.80978 -0.000244141 4.03472 -0.000244141H25.998V15.9006Z" fill="white"/>
<path d="M18.8458 11.8225H20.5145C20.5622 11.8225 20.6735 11.8067 20.7211 11.8067C21.039 11.7435 21.3091 11.459 21.3091 11.0639C21.3091 10.6845 21.039 10.4 20.7211 10.321C20.6735 10.3052 20.5781 10.3052 20.5145 10.3052H18.8458V11.8225Z" fill="url(#paint0_linear_26928_779)"/>
<path d="M20.3243 1.34253C18.7351 1.34253 17.4319 2.62281 17.4319 4.21922V7.20655H21.5162C21.6116 7.20655 21.7228 7.20655 21.8023 7.22235C22.724 7.26977 23.4074 7.74395 23.4074 8.56586C23.4074 9.21391 22.9465 9.76712 22.0884 9.87776V9.90937C23.026 9.9726 23.7412 10.4942 23.7412 11.3003C23.7412 12.1696 22.9465 12.7386 21.8976 12.7386H17.416V18.5869H21.6593C23.2485 18.5869 24.5517 17.3066 24.5517 15.7102V1.34253H20.3243Z" fill="url(#paint1_linear_26928_779)"/>
<path d="M21.1025 8.75674C21.1025 8.3774 20.8324 8.1245 20.5145 8.07709C20.4827 8.07709 20.4033 8.06128 20.3556 8.06128H18.8458V9.45221H20.3556C20.4033 9.45221 20.4986 9.45221 20.5145 9.4364C20.8324 9.38898 21.1025 9.13609 21.1025 8.75674Z" fill="url(#paint2_linear_26928_779)"/>
<path d="M4.33715 1.34253C2.7479 1.34253 1.44473 2.62281 1.44473 4.21922V11.3161C2.25524 11.7113 3.09754 11.9642 3.93983 11.9642C4.94106 11.9642 5.4814 11.3635 5.4814 10.5416V7.19074H7.96062V10.5258C7.96062 11.8219 7.1501 12.8809 4.40071 12.8809C2.73201 12.8809 1.42883 12.5174 1.42883 12.5174V18.5711H5.67211C7.26135 18.5711 8.56453 17.2908 8.56453 15.6944V1.34253H4.33715Z" fill="url(#paint3_linear_26928_779)"/>
<path d="M12.3307 1.34253C10.7415 1.34253 9.43832 2.62281 9.43832 4.21922V7.98104C10.1694 7.36461 11.4408 6.96946 13.4909 7.0643C14.5875 7.11171 15.7635 7.41203 15.7635 7.41203V8.62909C15.1755 8.32878 14.4762 8.06007 13.5704 7.99685C12.0129 7.88621 11.0752 8.6449 11.0752 9.9726C11.0752 11.3161 12.0129 12.0748 13.5704 11.9483C14.4762 11.8851 15.1755 11.6006 15.7635 11.3161V12.5332C15.7635 12.5332 14.6034 12.8335 13.4909 12.8809C11.4408 12.9757 10.1694 12.5806 9.43832 11.9642V18.6027H13.6816C15.2708 18.6027 16.574 17.3224 16.574 15.726V1.34253H12.3307Z" fill="url(#paint4_linear_26928_779)"/>
</g>
<defs>
<linearGradient id="paint0_linear_26928_779" x1="17.4287" y1="11.0657" x2="24.5704" y2="11.0657" gradientUnits="userSpaceOnUse">
<stop stop-color="#007940"/>
<stop offset="0.2285" stop-color="#00873F"/>
<stop offset="0.7433" stop-color="#40A737"/>
<stop offset="1" stop-color="#5CB531"/>
</linearGradient>
<linearGradient id="paint1_linear_26928_779" x1="17.429" y1="9.95779" x2="24.5712" y2="9.95779" gradientUnits="userSpaceOnUse">
<stop stop-color="#007940"/>
<stop offset="0.2285" stop-color="#00873F"/>
<stop offset="0.7433" stop-color="#40A737"/>
<stop offset="1" stop-color="#5CB531"/>
</linearGradient>
<linearGradient id="paint2_linear_26928_779" x1="17.4286" y1="8.75477" x2="24.5705" y2="8.75477" gradientUnits="userSpaceOnUse">
<stop stop-color="#007940"/>
<stop offset="0.2285" stop-color="#00873F"/>
<stop offset="0.7433" stop-color="#40A737"/>
<stop offset="1" stop-color="#5CB531"/>
</linearGradient>
<linearGradient id="paint3_linear_26928_779" x1="1.44136" y1="9.95779" x2="8.69355" y2="9.95779" gradientUnits="userSpaceOnUse">
<stop stop-color="#1F286F"/>
<stop offset="0.4751" stop-color="#004E94"/>
<stop offset="0.8261" stop-color="#0066B1"/>
<stop offset="1" stop-color="#006FBC"/>
</linearGradient>
<linearGradient id="paint4_linear_26928_779" x1="9.39723" y1="9.95779" x2="16.4408" y2="9.95779" gradientUnits="userSpaceOnUse">
<stop stop-color="#6C2C2F"/>
<stop offset="0.1735" stop-color="#882730"/>
<stop offset="0.5731" stop-color="#BE1833"/>
<stop offset="0.8585" stop-color="#DC0436"/>
<stop offset="1" stop-color="#E60039"/>
</linearGradient>
<clipPath id="clip0_26928_779">
<rect width="26" height="20" fill="white"/>
</clipPath>
</defs>
</svg>
