<svg width="34" height="20" viewBox="0 0 34 20" fill="none" xmlns="http://www.w3.org/2000/svg">
<rect width="34" height="20" rx="2" fill="white"/>
<path d="M19.6612 4.48706H13.4809V15.4098H19.6612V4.48706Z" fill="#FF5F00"/>
<path d="M13.8736 9.94731C13.8736 7.72803 14.9331 5.75962 16.5616 4.48595C15.3647 3.55964 13.854 3 12.2059 3C8.30156 3 5.14275 6.10699 5.14275 9.94731C5.14275 13.7876 8.30156 16.8946 12.2059 16.8946C13.854 16.8946 15.3647 16.335 16.5616 15.4087C14.9331 14.1543 13.8736 12.1666 13.8736 9.94731Z" fill="#EB001B"/>
<path d="M27.9999 9.94731C27.9999 13.7876 24.8411 16.8946 20.9367 16.8946C19.2886 16.8946 17.7779 16.335 16.5811 15.4087C18.2291 14.135 19.269 12.1666 19.269 9.94731C19.269 7.72803 18.2095 5.75962 16.5811 4.48595C17.7779 3.55964 19.2886 3 20.9367 3C24.8411 3 27.9999 6.12629 27.9999 9.94731Z" fill="#F79E1B"/>
<path fill-rule="evenodd" clip-rule="evenodd" d="M28 17V16H27.7931L27.551 16.7143L27.3089 16H27.1008V17H27.2507V16.2429L27.4761 16.8929H27.6311L27.8559 16.2429V17H28ZM26.6685 17V16.1714H26.9567V16H26.2708V16.1714H26.5423V17H26.6685Z" fill="#F79E1B"/>
</svg>
