<svg width="137" height="20" viewBox="0 0 137 20" fill="none" xmlns="http://www.w3.org/2000/svg">
<rect width="34" height="20" rx="2" fill="white"/>
<path d="M17.3126 8.25249C17.2968 9.42933 18.422 10.0861 19.2696 10.4765C20.1405 10.8772 20.433 11.1341 20.4297 11.4923C20.4231 12.0407 19.735 12.2827 19.091 12.2921C17.9674 12.3086 17.3142 12.0053 16.7949 11.7759L16.3902 13.5663C16.9112 13.7934 17.876 13.9914 18.8765 14C21.225 14 22.7615 12.9041 22.7699 11.2048C22.779 9.04831 19.6145 8.9289 19.6361 7.96495C19.6436 7.67271 19.9386 7.36082 20.5851 7.28147C20.9051 7.24141 21.7884 7.21077 22.7898 7.64678L23.1829 5.91451C22.6444 5.72911 21.9521 5.55156 21.0904 5.55156C18.8799 5.55156 17.325 6.66241 17.3126 8.25249ZM26.9598 5.70083C26.531 5.70083 26.1695 5.9373 26.0083 6.30025L22.6535 13.8727L25.0003 13.8727L25.4673 12.6527H28.3352L28.6061 13.8727H30.6745L28.8695 5.70083H26.9598ZM27.2881 7.90839L27.9654 10.977H26.1105L27.2881 7.90839ZM14.4672 5.70083L12.6173 13.8727H14.8536L16.7026 5.70083H14.4672ZM11.1589 5.70083L8.83124 11.2629L7.88969 6.53357C7.77917 6.00564 7.34289 5.70083 6.8584 5.70083H3.05318L3 5.93808C3.78115 6.09835 4.66868 6.35681 5.20635 6.63335C5.53543 6.80225 5.62933 6.94995 5.73737 7.35139L7.52072 13.8727H9.88413L13.5074 5.70083H11.1589Z" fill="#1B5BA6"/>
<rect x="38" width="34" height="20" rx="2" fill="white"/>
<path d="M57.6612 4.48706H51.4809V15.4098H57.6612V4.48706Z" fill="#FF5F00"/>
<path d="M51.8736 9.94731C51.8736 7.72803 52.9331 5.75962 54.5616 4.48595C53.3647 3.55964 51.854 3 50.2059 3C46.3016 3 43.1427 6.10699 43.1427 9.94731C43.1427 13.7876 46.3016 16.8946 50.2059 16.8946C51.854 16.8946 53.3647 16.335 54.5616 15.4087C52.9331 14.1543 51.8736 12.1666 51.8736 9.94731Z" fill="#EB001B"/>
<path d="M65.9999 9.94731C65.9999 13.7876 62.8411 16.8946 58.9367 16.8946C57.2886 16.8946 55.7779 16.335 54.5811 15.4087C56.2291 14.135 57.269 12.1666 57.269 9.94731C57.269 7.72803 56.2095 5.75962 54.5811 4.48595C55.7779 3.55964 57.2886 3 58.9367 3C62.8411 3 65.9999 6.12629 65.9999 9.94731Z" fill="#F79E1B"/>
<path fill-rule="evenodd" clip-rule="evenodd" d="M66 17V16H65.7931L65.551 16.7143L65.3089 16H65.1008V17H65.2507V16.2429L65.4761 16.8929H65.6311L65.8559 16.2429V17H66ZM64.6685 17V16.1714H64.9567V16H64.2708V16.1714H64.5423V17H64.6685Z" fill="#F79E1B"/>
<mask id="mask0_26832_708" style="mask-type:luminance" maskUnits="userSpaceOnUse" x="77" y="0" width="15" height="20">
<path fill-rule="evenodd" clip-rule="evenodd" d="M77.0369 0.668457H91.3867V19.3318H77.0369V0.668457Z" fill="white"/>
</mask>
<g mask="url(#mask0_26832_708)">
<path fill-rule="evenodd" clip-rule="evenodd" d="M82.7081 0.668457H89.9361C90.945 0.668457 91.5726 1.51577 91.3372 2.55876L87.9721 17.4445C87.7346 18.4838 86.7244 19.3319 85.7147 19.3319H78.4874C77.4798 19.3319 76.8509 18.4838 77.0863 17.4445L80.4528 2.55876C80.6882 1.51577 81.6979 0.668457 82.7081 0.668457Z" fill="#E31837"/>
</g>
<mask id="mask1_26832_708" style="mask-type:luminance" maskUnits="userSpaceOnUse" x="83" y="0" width="16" height="20">
<path fill-rule="evenodd" clip-rule="evenodd" d="M83.6649 0.668213H98.2746V19.3316H83.6649V0.668213Z" fill="white"/>
</mask>
<g mask="url(#mask1_26832_708)">
<path fill-rule="evenodd" clip-rule="evenodd" d="M89.3356 0.668213H97.6477C98.6564 0.668213 98.2016 1.51553 97.9642 2.55851L94.5996 17.4442C94.3635 18.4836 94.4372 19.3316 93.4263 19.3316H85.1143C84.1034 19.3316 83.4778 18.4836 83.7152 17.4442L87.0797 2.55851C87.3186 1.51553 88.3261 0.668213 89.3356 0.668213Z" fill="#00447C"/>
</g>
<mask id="mask2_26832_708" style="mask-type:luminance" maskUnits="userSpaceOnUse" x="91" y="0" width="15" height="20">
<path fill-rule="evenodd" clip-rule="evenodd" d="M91.6508 0.668701H106V19.3321H91.6508V0.668701Z" fill="white"/>
</mask>
<g mask="url(#mask2_26832_708)">
<path fill-rule="evenodd" clip-rule="evenodd" d="M97.3212 0.668701H104.549C105.56 0.668701 106.187 1.51601 105.95 2.559L102.585 17.4447C102.348 18.4841 101.337 19.3321 100.327 19.3321H93.102C92.0911 19.3321 91.4641 18.4841 91.7008 17.4447L95.066 2.559C95.3014 1.51601 96.3103 0.668701 97.3212 0.668701Z" fill="#007B85"/>
</g>
<path fill-rule="evenodd" clip-rule="evenodd" d="M98.5065 11.659L97.6249 14.6632H97.8631L97.6786 15.2837H97.4433L97.3874 15.475H96.5486L96.6057 15.2837H94.9031L95.0731 14.7093H95.2465L96.1397 11.659L96.318 11.0442H97.1728L97.0833 11.354C97.0833 11.354 97.3111 11.1854 97.5271 11.1279C97.7426 11.0691 98.982 11.0478 98.982 11.0478L98.7989 11.659H98.5065ZM96.999 11.66L96.7726 12.4278C96.7726 12.4278 97.0271 12.3094 97.1642 12.2704C97.3046 12.2321 97.5145 12.2194 97.5145 12.2194L97.6783 11.66H96.999ZM96.6612 12.808L96.427 13.6072C96.427 13.6072 96.6865 13.4711 96.8248 13.4277C96.9652 13.3952 97.1786 13.3674 97.1786 13.3674L97.3438 12.808H96.6612ZM96.1146 14.6698H96.7959L96.9913 13.9954H96.3121L96.1146 14.6698Z" fill="#FEFEFE"/>
<path fill-rule="evenodd" clip-rule="evenodd" d="M98.8812 11.0481H99.7951L99.804 11.3984C99.7979 11.458 99.8474 11.4855 99.9541 11.4855H100.14L99.97 12.0642H99.4765C99.0498 12.0954 98.8874 11.9067 98.8985 11.6941L98.8812 11.0481Z" fill="#FEFEFE"/>
<path fill-rule="evenodd" clip-rule="evenodd" d="M99.0035 13.7936H98.133L98.2823 13.2788H99.2775L99.4184 12.808H98.4364L98.6036 12.2273H101.336L101.166 12.808H100.25L100.107 13.2788H101.026L100.873 13.7936H99.8804L99.7035 14.0105H100.107L100.205 14.6594C100.216 14.7239 100.216 14.7663 100.237 14.7941C100.257 14.8168 100.379 14.8288 100.449 14.8288H100.571L100.385 15.4599H100.074C100.027 15.4599 99.9552 15.4563 99.8562 15.4521C99.7639 15.4436 99.6985 15.3875 99.6353 15.355C99.5782 15.3272 99.4935 15.2564 99.4729 15.1352L99.3758 14.4877L98.9237 15.1252C98.7805 15.3272 98.5865 15.4811 98.2583 15.4811H97.6265L97.7923 14.9174H98.0338C98.1041 14.9174 98.1646 14.889 98.2107 14.8649C98.2569 14.8451 98.2981 14.8202 98.3443 14.7502L99.0035 13.7936Z" fill="#FEFEFE"/>
<path fill-rule="evenodd" clip-rule="evenodd" d="M89.4749 12.3809H91.7803L91.6096 12.9466H90.6882L90.5443 13.4302H91.4872L91.315 14.0145H90.373L90.1438 14.8001C90.1163 14.8867 90.3681 14.8979 90.459 14.8979L90.9297 14.8313L90.7405 15.4786H89.6785C89.5926 15.4786 89.5293 15.4659 89.437 15.4447C89.3475 15.4212 89.3077 15.38 89.2684 15.3178C89.2298 15.2539 89.1694 15.2014 89.2106 15.0638L89.5161 14.0245H88.9925L89.1666 13.4302H89.6916L89.8313 12.9466H89.3077L89.4749 12.3809Z" fill="#FEFEFE"/>
<path fill-rule="evenodd" clip-rule="evenodd" d="M91.0215 11.3631H91.9671L91.7958 11.9552H90.5039L90.3644 12.0799C90.3038 12.1401 90.2832 12.1155 90.2046 12.1587C90.1317 12.1962 89.9789 12.2714 89.78 12.2714H89.3664L89.533 11.7027H89.6576C89.7622 11.7027 89.8345 11.6927 89.8709 11.6693C89.9122 11.6417 89.9583 11.5814 90.0092 11.4843L90.248 11.0398H91.1866L91.0215 11.3631Z" fill="#FEFEFE"/>
<path fill-rule="evenodd" clip-rule="evenodd" d="M92.3742 11.0473H93.1793L93.0616 11.465C93.0616 11.465 93.3164 11.2552 93.4945 11.1798C93.6714 11.1125 94.0727 11.0515 94.0727 11.0515L95.3761 11.0437L94.9323 12.5675C94.8572 12.8278 94.7698 12.9964 94.7154 13.0738C94.6666 13.1511 94.6088 13.2184 94.4959 13.2823C94.3865 13.3431 94.2861 13.3773 94.1937 13.3872C94.1078 13.3936 93.9756 13.3958 93.7926 13.3985H92.5366L92.1836 14.6025C92.1499 14.7223 92.1341 14.7797 92.1561 14.8123C92.1739 14.8401 92.2165 14.8726 92.2757 14.8726L92.8298 14.8187L92.6399 15.4796H92.0211C91.8236 15.4796 91.6804 15.4747 91.58 15.4669C91.4843 15.4583 91.3846 15.4669 91.3171 15.4144C91.2601 15.362 91.172 15.2924 91.1741 15.2222C91.1802 15.157 91.207 15.0485 91.247 14.8989L92.3742 11.0473ZM94.0828 12.5847H92.7636L92.6824 12.8583H93.8247C93.959 12.8421 93.9871 12.8619 93.9989 12.8555L94.0828 12.5847ZM92.8353 12.3373C92.8353 12.3373 93.0934 12.0943 93.5353 12.0155C93.6357 11.9962 94.2627 12.0028 94.2627 12.0028L94.3584 11.6766H93.0281L92.8353 12.3373Z" fill="#FEFEFE"/>
<path fill-rule="evenodd" clip-rule="evenodd" d="M94.722 13.5051L94.6469 13.8711C94.6154 13.9858 94.5877 14.0709 94.5039 14.1446C94.4158 14.2219 94.3126 14.3029 94.071 14.3029L93.6237 14.3219L93.6202 14.7353C93.6154 14.8516 93.6457 14.8402 93.6635 14.8587C93.6841 14.8799 93.7028 14.8877 93.722 14.8963L93.8638 14.8877L94.2905 14.8636L94.1137 15.4671H93.6237C93.2809 15.4671 93.0263 15.4586 92.9437 15.3913C92.861 15.3373 92.8501 15.27 92.8515 15.1537L92.8831 13.5412H93.6649L93.654 13.8711H93.8418C93.9065 13.8711 93.9498 13.8645 93.9768 13.8469C94.0007 13.8284 94.018 13.8037 94.0289 13.7632L94.1075 13.5051H94.722Z" fill="#FEFEFE"/>
<path fill-rule="evenodd" clip-rule="evenodd" d="M83.5681 5.42261C83.5413 5.55457 83.0396 7.93823 83.0381 7.94041C82.9301 8.42251 82.8517 8.76648 82.5847 8.98848C82.4333 9.11735 82.2564 9.17979 82.0514 9.17979C81.7218 9.17979 81.5297 9.01117 81.4973 8.69134L81.4911 8.58134C81.4911 8.58134 81.5916 7.93551 81.5916 7.93188C81.5916 7.93188 82.1181 5.75932 82.2124 5.47216C82.2172 5.45601 82.2186 5.44748 82.22 5.43967C81.1952 5.44893 81.0135 5.43967 81.0012 5.42261C80.9943 5.44602 80.9688 5.58071 80.9688 5.58071L80.4313 8.02899L80.3853 8.23682L80.2958 8.91605C80.2958 9.11735 80.3344 9.28199 80.4106 9.42085C80.6557 9.86193 81.3542 9.92782 81.7492 9.92782C82.2584 9.92782 82.736 9.81655 83.0588 9.61307C83.619 9.272 83.7656 8.73889 83.8963 8.26514L83.9569 8.02191C83.9569 8.02191 84.4992 5.76585 84.5915 5.47216C84.5948 5.45601 84.5962 5.44748 84.601 5.43967C83.8579 5.44748 83.6382 5.43967 83.5681 5.42261Z" fill="#FEFEFE"/>
<path fill-rule="evenodd" clip-rule="evenodd" d="M86.5642 9.90316C86.2014 9.89681 86.0721 9.89681 85.6475 9.92023L85.6317 9.88683C85.6681 9.71947 85.7081 9.55574 85.7446 9.38693L85.7969 9.15859C85.8753 8.80481 85.9516 8.39296 85.9606 8.26662C85.9689 8.19147 85.9944 8.00288 85.7844 8.00288C85.6963 8.00288 85.6042 8.04681 85.5106 8.09164C85.4595 8.28023 85.3565 8.8099 85.3068 9.05095C85.2016 9.55919 85.1953 9.61819 85.1479 9.86922L85.1176 9.90316C84.7432 9.89681 84.6125 9.89681 84.1817 9.92023L84.1624 9.88193C84.2339 9.58061 84.3056 9.27567 84.3743 8.97362C84.5554 8.1539 84.5987 7.8406 84.6475 7.42366L84.6826 7.39952C85.1031 7.33853 85.205 7.32583 85.6599 7.23071L85.6984 7.27482L85.6283 7.53566C85.706 7.4881 85.7797 7.44073 85.8573 7.39952C86.0721 7.29098 86.311 7.25848 86.4417 7.25848C86.6419 7.25848 86.8601 7.31584 86.9509 7.55345C87.037 7.76546 86.9798 8.02557 86.8663 8.53889L86.8078 8.80137C86.6915 9.37205 86.6722 9.47697 86.6068 9.86922L86.5642 9.90316Z" fill="#FEFEFE"/>
<path fill-rule="evenodd" clip-rule="evenodd" d="M88.0404 9.9036C87.8209 9.90215 87.6791 9.89725 87.5422 9.90215C87.4053 9.9036 87.2718 9.91068 87.0679 9.92066L87.057 9.90215L87.044 9.88236C87.0996 9.666 87.13 9.59085 87.1574 9.5137C87.1856 9.43638 87.2112 9.35978 87.2607 9.13996C87.3248 8.85281 87.3639 8.65278 87.3895 8.47707C87.4198 8.30681 87.4354 8.16214 87.4582 7.99478L87.474 7.98208L87.4913 7.96574C87.7094 7.93452 87.8477 7.91328 87.9895 7.88987C88.1326 7.87081 88.2765 7.84104 88.5022 7.79639L88.5105 7.81617L88.5166 7.83741C88.4754 8.01475 88.4321 8.19191 88.3907 8.37197C88.3509 8.55294 88.3082 8.72938 88.2696 8.90672C88.1884 9.28391 88.1553 9.42494 88.1361 9.52714C88.1169 9.62207 88.112 9.67453 88.0804 9.86966L88.0596 9.88726L88.0404 9.9036Z" fill="#FEFEFE"/>
<path fill-rule="evenodd" clip-rule="evenodd" d="M91.3036 8.61261C91.431 8.03684 91.3318 7.7682 91.2072 7.60429C91.018 7.35471 90.6835 7.27466 90.3368 7.27466C90.1282 7.27466 89.6313 7.2959 89.2432 7.66455C88.9645 7.93047 88.8357 8.29133 88.758 8.63748C88.6795 8.9898 88.5894 9.62437 89.1558 9.86053C89.3306 9.93785 89.5824 9.95909 89.7448 9.95909C90.1599 9.95909 90.5852 9.84147 90.9051 9.49187C91.1516 9.20816 91.2643 8.78632 91.3036 8.61261ZM90.3518 8.57248C90.3338 8.66977 90.2512 9.03062 90.1399 9.18455C90.062 9.29799 89.9699 9.36661 89.868 9.36661C89.8377 9.36661 89.6573 9.36661 89.6547 9.09088C89.6533 8.95475 89.6801 8.81571 89.7132 8.66469C89.8088 8.22869 89.9216 7.86275 90.21 7.86275C90.4357 7.86275 90.4522 8.13502 90.3518 8.57248Z" fill="#FEFEFE"/>
<path fill-rule="evenodd" clip-rule="evenodd" d="M100.195 9.94176C99.7558 9.93813 99.6298 9.93813 99.2245 9.95592L99.1991 9.92197C99.3085 9.49215 99.4186 9.06395 99.5169 8.6294C99.6443 8.06562 99.6732 7.82602 99.7144 7.4962L99.7475 7.46861C100.184 7.40472 100.305 7.38639 100.758 7.2998L100.771 7.33883C100.688 7.69333 100.607 8.04583 100.526 8.40178C100.359 9.14473 100.299 9.52191 100.235 9.91054L100.195 9.94176Z" fill="#FEFEFE"/>
<path fill-rule="evenodd" clip-rule="evenodd" d="M100.407 8.6647C100.534 8.09256 100.02 8.61369 99.9387 8.42509C99.8135 8.13013 99.8912 7.53313 99.3868 7.3331C99.1926 7.25432 98.737 7.35579 98.3456 7.72317C98.0702 7.98546 97.9381 8.34486 97.863 8.68956C97.7839 9.03698 97.6932 9.67156 98.2568 9.89773C98.4363 9.97651 98.5973 9.99974 98.7612 9.99139C99.3276 9.96017 99.759 9.07801 100.079 8.72986C100.325 8.45341 100.369 8.8335 100.407 8.6647ZM99.5401 8.62204C99.518 8.71552 99.4347 9.07928 99.3234 9.23175C99.249 9.34029 99.0721 9.40764 98.9703 9.40764C98.9414 9.40764 98.7631 9.40764 98.757 9.13682C98.7555 9.00195 98.7823 8.86309 98.8161 8.71062C98.9132 8.28242 99.0246 7.91994 99.3137 7.91994C99.5401 7.91994 99.6371 8.18386 99.5401 8.62204Z" fill="#FEFEFE"/>
<path fill-rule="evenodd" clip-rule="evenodd" d="M93.7899 9.90316C93.4252 9.89681 93.3007 9.89681 92.8747 9.92023L92.8588 9.88683C92.8953 9.71947 92.9365 9.55574 92.9744 9.38693L93.0239 9.15859C93.1037 8.80481 93.1801 8.39296 93.1877 8.26662C93.196 8.19147 93.2214 8.00288 93.013 8.00288C92.922 8.00288 92.8313 8.04681 92.7376 8.09164C92.6881 8.28023 92.5827 8.8099 92.5318 9.05095C92.43 9.55919 92.4224 9.61819 92.3764 9.86922L92.344 9.90316C91.9703 9.89681 91.8416 9.89681 91.4101 9.92023L91.3909 9.88193C91.4624 9.58061 91.534 9.27567 91.6028 8.97362C91.7838 8.1539 91.8252 7.8406 91.8761 7.42366L91.9083 7.39952C92.3282 7.33853 92.4321 7.32583 92.887 7.23071L92.922 7.27482L92.8567 7.53566C92.9317 7.4881 93.0082 7.44073 93.0845 7.39952C93.2978 7.29098 93.538 7.25848 93.6689 7.25848C93.8664 7.25848 94.0859 7.31584 94.1794 7.55345C94.264 7.76546 94.2062 8.02557 94.092 8.53889L94.035 8.80137C93.9152 9.37205 93.8979 9.47697 93.8339 9.86922L93.7899 9.90316Z" fill="#FEFEFE"/>
<path fill-rule="evenodd" clip-rule="evenodd" d="M97.3342 6.81788C97.2702 7.11647 97.0823 7.36733 96.8407 7.48858C96.6418 7.5915 96.3984 7.60003 96.1471 7.60003H95.9847L95.997 7.53269C95.997 7.53269 96.2963 6.19111 96.2951 6.19601L96.3046 6.12722L96.3089 6.07476L96.4285 6.08764C96.4285 6.08764 97.0458 6.1421 97.0602 6.14355C97.3039 6.24066 97.4043 6.49097 97.3342 6.81788ZM96.9414 5.41919C96.9392 5.41919 96.6385 5.4221 96.6385 5.4221C95.8526 5.4319 95.5374 5.42918 95.4079 5.41284C95.397 5.47165 95.3764 5.57657 95.3764 5.57657C95.3764 5.57657 95.0948 6.92087 95.0948 6.92305C95.0948 6.92305 94.4211 9.78119 94.3894 9.91588C95.0756 9.90753 95.357 9.90753 95.4754 9.92096C95.5023 9.78627 95.6613 8.98779 95.6627 8.98779C95.6627 8.98779 95.7981 8.40222 95.8064 8.3808C95.8064 8.3808 95.8491 8.31981 95.8917 8.29585H95.9544C96.5462 8.29585 97.2144 8.29585 97.7382 7.8987C98.0946 7.62642 98.3383 7.22437 98.447 6.73591C98.4753 6.61611 98.4959 6.47362 98.4959 6.33095C98.4959 6.1438 98.4595 5.95884 98.3541 5.81417C98.087 5.42918 97.5552 5.4221 96.9414 5.41919Z" fill="#FEFEFE"/>
<path fill-rule="evenodd" clip-rule="evenodd" d="M103.787 7.29658L103.752 7.25537C103.303 7.34903 103.222 7.36392 102.809 7.42128L102.779 7.4525C102.778 7.45758 102.776 7.46538 102.774 7.47246L102.773 7.46538C102.466 8.19489 102.475 8.03752 102.225 8.61184C102.224 8.5857 102.224 8.56936 102.222 8.54159L102.16 7.29658L102.121 7.25537C101.651 7.34903 101.639 7.36392 101.205 7.42128L101.172 7.4525C101.167 7.46738 101.167 7.48372 101.164 7.50151L101.167 7.50786C101.221 7.79356 101.208 7.72985 101.262 8.18074C101.288 8.402 101.322 8.62454 101.347 8.84309C101.39 9.20884 101.414 9.3889 101.466 9.94706C101.173 10.4455 101.104 10.6341 100.821 11.0716L100.839 11.1126C101.262 11.0964 101.361 11.0964 101.675 11.0964L101.743 11.0162C101.98 10.4894 103.787 7.29658 103.787 7.29658Z" fill="#FEFEFE"/>
<path fill-rule="evenodd" clip-rule="evenodd" d="M88.4411 7.60508C88.6819 7.43282 88.7122 7.19522 88.51 7.07179C88.3049 6.94709 87.945 6.98684 87.7027 7.1591C87.4612 7.32791 87.4335 7.56751 87.6379 7.69366C87.8396 7.81491 88.201 7.77879 88.4411 7.60508Z" fill="#FEFEFE"/>
<path fill-rule="evenodd" clip-rule="evenodd" d="M101.711 11.0605L101.358 11.6839C101.247 11.8972 101.039 12.056 100.71 12.0574L100.148 12.0474L100.312 11.4867H100.422C100.479 11.4867 100.521 11.4838 100.552 11.4675C100.581 11.4577 100.602 11.4343 100.625 11.4002L100.833 11.0605H101.711Z" fill="#FEFEFE"/>
<g clip-path="url(#clip0_26832_708)">
<path d="M136.998 15.9006C136.998 18.1134 135.186 19.9153 132.961 19.9153H110.998V4.01447C110.998 1.80164 112.81 -0.000244141 115.035 -0.000244141H136.998V15.9006Z" fill="white"/>
<path d="M129.846 11.8225H131.515C131.562 11.8225 131.673 11.8067 131.721 11.8067C132.039 11.7435 132.309 11.459 132.309 11.0639C132.309 10.6845 132.039 10.4 131.721 10.321C131.673 10.3052 131.578 10.3052 131.515 10.3052H129.846V11.8225Z" fill="url(#paint0_linear_26832_708)"/>
<path d="M131.324 1.34253C129.735 1.34253 128.432 2.62281 128.432 4.21922V7.20655H132.516C132.612 7.20655 132.723 7.20655 132.802 7.22235C133.724 7.26977 134.407 7.74395 134.407 8.56586C134.407 9.21391 133.947 9.76712 133.088 9.87776V9.90937C134.026 9.9726 134.741 10.4942 134.741 11.3003C134.741 12.1696 133.947 12.7386 132.898 12.7386H128.416V18.5869H132.659C134.248 18.5869 135.552 17.3066 135.552 15.7102V1.34253H131.324Z" fill="url(#paint1_linear_26832_708)"/>
<path d="M132.103 8.75674C132.103 8.3774 131.832 8.1245 131.515 8.07709C131.483 8.07709 131.403 8.06128 131.356 8.06128H129.846V9.45221H131.356C131.403 9.45221 131.499 9.45221 131.515 9.4364C131.832 9.38898 132.103 9.13609 132.103 8.75674Z" fill="url(#paint2_linear_26832_708)"/>
<path d="M115.337 1.34253C113.748 1.34253 112.445 2.62281 112.445 4.21922V11.3161C113.255 11.7113 114.098 11.9642 114.94 11.9642C115.941 11.9642 116.481 11.3635 116.481 10.5416V7.19074H118.961V10.5258C118.961 11.8219 118.15 12.8809 115.401 12.8809C113.732 12.8809 112.429 12.5174 112.429 12.5174V18.5711H116.672C118.261 18.5711 119.565 17.2908 119.565 15.6944V1.34253H115.337Z" fill="url(#paint3_linear_26832_708)"/>
<path d="M123.331 1.34253C121.742 1.34253 120.438 2.62281 120.438 4.21922V7.98104C121.169 7.36461 122.441 6.96946 124.491 7.0643C125.587 7.11171 126.764 7.41203 126.764 7.41203V8.62909C126.175 8.32878 125.476 8.06007 124.57 7.99685C123.013 7.88621 122.075 8.6449 122.075 9.9726C122.075 11.3161 123.013 12.0748 124.57 11.9483C125.476 11.8851 126.175 11.6006 126.764 11.3161V12.5332C126.764 12.5332 125.603 12.8335 124.491 12.8809C122.441 12.9757 121.169 12.5806 120.438 11.9642V18.6027H124.682C126.271 18.6027 127.574 17.3224 127.574 15.726V1.34253H123.331Z" fill="url(#paint4_linear_26832_708)"/>
</g>
<defs>
<linearGradient id="paint0_linear_26832_708" x1="128.429" y1="11.0657" x2="135.57" y2="11.0657" gradientUnits="userSpaceOnUse">
<stop stop-color="#007940"/>
<stop offset="0.2285" stop-color="#00873F"/>
<stop offset="0.7433" stop-color="#40A737"/>
<stop offset="1" stop-color="#5CB531"/>
</linearGradient>
<linearGradient id="paint1_linear_26832_708" x1="128.429" y1="9.95779" x2="135.571" y2="9.95779" gradientUnits="userSpaceOnUse">
<stop stop-color="#007940"/>
<stop offset="0.2285" stop-color="#00873F"/>
<stop offset="0.7433" stop-color="#40A737"/>
<stop offset="1" stop-color="#5CB531"/>
</linearGradient>
<linearGradient id="paint2_linear_26832_708" x1="128.429" y1="8.75477" x2="135.57" y2="8.75477" gradientUnits="userSpaceOnUse">
<stop stop-color="#007940"/>
<stop offset="0.2285" stop-color="#00873F"/>
<stop offset="0.7433" stop-color="#40A737"/>
<stop offset="1" stop-color="#5CB531"/>
</linearGradient>
<linearGradient id="paint3_linear_26832_708" x1="112.441" y1="9.95779" x2="119.694" y2="9.95779" gradientUnits="userSpaceOnUse">
<stop stop-color="#1F286F"/>
<stop offset="0.4751" stop-color="#004E94"/>
<stop offset="0.8261" stop-color="#0066B1"/>
<stop offset="1" stop-color="#006FBC"/>
</linearGradient>
<linearGradient id="paint4_linear_26832_708" x1="120.397" y1="9.95779" x2="127.441" y2="9.95779" gradientUnits="userSpaceOnUse">
<stop stop-color="#6C2C2F"/>
<stop offset="0.1735" stop-color="#882730"/>
<stop offset="0.5731" stop-color="#BE1833"/>
<stop offset="0.8585" stop-color="#DC0436"/>
<stop offset="1" stop-color="#E60039"/>
</linearGradient>
<clipPath id="clip0_26832_708">
<rect width="26" height="20" fill="white" transform="translate(111)"/>
</clipPath>
</defs>
</svg>
