<svg width="31" height="20" viewBox="0 0 31 20" fill="none" xmlns="http://www.w3.org/2000/svg">
<mask id="mask0_26928_780" style="mask-type:luminance" maskUnits="userSpaceOnUse" x="1" y="0" width="15" height="20">
<path fill-rule="evenodd" clip-rule="evenodd" d="M1.0369 0.668457H15.3867V19.3318H1.0369V0.668457Z" fill="white"/>
</mask>
<g mask="url(#mask0_26928_780)">
<path fill-rule="evenodd" clip-rule="evenodd" d="M6.70807 0.668457H13.9361C14.945 0.668457 15.5726 1.51577 15.3372 2.55876L11.9721 17.4445C11.7346 18.4838 10.7244 19.3319 9.7147 19.3319H2.4874C1.47985 19.3319 0.850898 18.4838 1.08627 17.4445L4.45283 2.55876C4.6882 1.51577 5.69787 0.668457 6.70807 0.668457Z" fill="#E31837"/>
</g>
<mask id="mask1_26928_780" style="mask-type:luminance" maskUnits="userSpaceOnUse" x="7" y="0" width="16" height="20">
<path fill-rule="evenodd" clip-rule="evenodd" d="M7.66492 0.668213H22.2746V19.3316H7.66492V0.668213Z" fill="white"/>
</mask>
<g mask="url(#mask1_26928_780)">
<path fill-rule="evenodd" clip-rule="evenodd" d="M13.3356 0.668213H21.6477C22.6564 0.668213 22.2016 1.51553 21.9642 2.55851L18.5996 17.4442C18.3635 18.4836 18.4372 19.3316 17.4263 19.3316H9.11427C8.10337 19.3316 7.47776 18.4836 7.71525 17.4442L11.0797 2.55851C11.3186 1.51553 12.3261 0.668213 13.3356 0.668213Z" fill="#00447C"/>
</g>
<mask id="mask2_26928_780" style="mask-type:luminance" maskUnits="userSpaceOnUse" x="15" y="0" width="15" height="20">
<path fill-rule="evenodd" clip-rule="evenodd" d="M15.6508 0.668701H30V19.3321H15.6508V0.668701Z" fill="white"/>
</mask>
<g mask="url(#mask2_26928_780)">
<path fill-rule="evenodd" clip-rule="evenodd" d="M21.3212 0.668701H28.5492C29.5596 0.668701 30.1871 1.51601 29.9498 2.559L26.5852 17.4447C26.3477 18.4841 25.3368 19.3321 24.3266 19.3321H17.102C16.0911 19.3321 15.4641 18.4841 15.7008 17.4447L19.066 2.559C19.3014 1.51601 20.3103 0.668701 21.3212 0.668701Z" fill="#007B85"/>
</g>
<path fill-rule="evenodd" clip-rule="evenodd" d="M22.5065 11.659L21.6249 14.6632H21.8631L21.6786 15.2837H21.4433L21.3874 15.475H20.5486L20.6057 15.2837H18.9031L19.0731 14.7093H19.2465L20.1397 11.659L20.318 11.0442H21.1728L21.0833 11.354C21.0833 11.354 21.3111 11.1854 21.5271 11.1279C21.7426 11.0691 22.982 11.0478 22.982 11.0478L22.7989 11.659H22.5065ZM20.999 11.66L20.7726 12.4278C20.7726 12.4278 21.0271 12.3094 21.1642 12.2704C21.3046 12.2321 21.5145 12.2194 21.5145 12.2194L21.6783 11.66H20.999ZM20.6612 12.808L20.427 13.6072C20.427 13.6072 20.6865 13.4711 20.8248 13.4277C20.9652 13.3952 21.1786 13.3674 21.1786 13.3674L21.3438 12.808H20.6612ZM20.1146 14.6698H20.7959L20.9913 13.9954H20.3121L20.1146 14.6698Z" fill="#FEFEFE"/>
<path fill-rule="evenodd" clip-rule="evenodd" d="M22.8812 11.0481H23.7951L23.804 11.3984C23.7979 11.458 23.8474 11.4855 23.9541 11.4855H24.14L23.97 12.0642H23.4765C23.0498 12.0954 22.8874 11.9067 22.8985 11.6941L22.8812 11.0481Z" fill="#FEFEFE"/>
<path fill-rule="evenodd" clip-rule="evenodd" d="M23.0035 13.7936H22.133L22.2823 13.2788H23.2775L23.4184 12.808H22.4364L22.6036 12.2273H25.3365L25.1664 12.808H24.2498L24.1067 13.2788H25.026L24.8733 13.7936H23.8804L23.7035 14.0105H24.1067L24.205 14.6594C24.2161 14.7239 24.2161 14.7663 24.2368 14.7941C24.2574 14.8168 24.3786 14.8288 24.4487 14.8288H24.5711L24.3847 15.4599H24.0743C24.0269 15.4599 23.9552 15.4563 23.8562 15.4521C23.7639 15.4436 23.6985 15.3875 23.6353 15.355C23.5782 15.3272 23.4935 15.2564 23.4729 15.1352L23.3758 14.4877L22.9237 15.1252C22.7805 15.3272 22.5865 15.4811 22.2583 15.4811H21.6265L21.7923 14.9174H22.0338C22.1041 14.9174 22.1646 14.889 22.2107 14.8649C22.2569 14.8451 22.2981 14.8202 22.3443 14.7502L23.0035 13.7936Z" fill="#FEFEFE"/>
<path fill-rule="evenodd" clip-rule="evenodd" d="M13.4749 12.3809H15.7803L15.6096 12.9466H14.6882L14.5443 13.4302H15.4872L15.315 14.0145H14.373L14.1438 14.8001C14.1163 14.8867 14.3681 14.8979 14.459 14.8979L14.9297 14.8313L14.7405 15.4786H13.6785C13.5926 15.4786 13.5293 15.4659 13.437 15.4447C13.3475 15.4212 13.3077 15.38 13.2684 15.3178C13.2298 15.2539 13.1694 15.2014 13.2106 15.0638L13.5161 14.0245H12.9925L13.1666 13.4302H13.6916L13.8313 12.9466H13.3077L13.4749 12.3809Z" fill="#FEFEFE"/>
<path fill-rule="evenodd" clip-rule="evenodd" d="M15.0215 11.3631H15.9671L15.7958 11.9552H14.5039L14.3644 12.0799C14.3038 12.1401 14.2832 12.1155 14.2046 12.1587C14.1317 12.1962 13.9789 12.2714 13.78 12.2714H13.3664L13.533 11.7027H13.6576C13.7622 11.7027 13.8345 11.6927 13.8709 11.6693C13.9122 11.6417 13.9583 11.5814 14.0092 11.4843L14.248 11.0398H15.1866L15.0215 11.3631Z" fill="#FEFEFE"/>
<path fill-rule="evenodd" clip-rule="evenodd" d="M16.3742 11.0473H17.1793L17.0616 11.465C17.0616 11.465 17.3164 11.2552 17.4945 11.1798C17.6714 11.1125 18.0727 11.0515 18.0727 11.0515L19.3761 11.0437L18.9323 12.5675C18.8572 12.8278 18.7698 12.9964 18.7154 13.0738C18.6666 13.1511 18.6088 13.2184 18.4959 13.2823C18.3865 13.3431 18.2861 13.3773 18.1937 13.3872C18.1078 13.3936 17.9756 13.3958 17.7926 13.3985H16.5366L16.1836 14.6025C16.1499 14.7223 16.1341 14.7797 16.1561 14.8123C16.1739 14.8401 16.2165 14.8726 16.2757 14.8726L16.8298 14.8187L16.6399 15.4796H16.0211C15.8236 15.4796 15.6804 15.4747 15.58 15.4669C15.4843 15.4583 15.3846 15.4669 15.3171 15.4144C15.2601 15.362 15.172 15.2924 15.1741 15.2222C15.1802 15.157 15.207 15.0485 15.247 14.8989L16.3742 11.0473ZM18.0828 12.5847H16.7636L16.6824 12.8583H17.8247C17.959 12.8421 17.9871 12.8619 17.9989 12.8555L18.0828 12.5847ZM16.8353 12.3373C16.8353 12.3373 17.0934 12.0943 17.5353 12.0155C17.6357 11.9962 18.2627 12.0028 18.2627 12.0028L18.3584 11.6766H17.0281L16.8353 12.3373Z" fill="#FEFEFE"/>
<path fill-rule="evenodd" clip-rule="evenodd" d="M18.722 13.5051L18.6469 13.8711C18.6154 13.9858 18.5877 14.0709 18.5039 14.1446C18.4158 14.2219 18.3126 14.3029 18.071 14.3029L17.6237 14.3219L17.6202 14.7353C17.6154 14.8516 17.6457 14.8402 17.6635 14.8587C17.6841 14.8799 17.7028 14.8877 17.722 14.8963L17.8638 14.8877L18.2905 14.8636L18.1137 15.4671H17.6237C17.2809 15.4671 17.0263 15.4586 16.9437 15.3913C16.861 15.3373 16.8501 15.27 16.8515 15.1537L16.8831 13.5412H17.6649L17.654 13.8711H17.8418C17.9065 13.8711 17.9498 13.8645 17.9768 13.8469C18.0007 13.8284 18.018 13.8037 18.0289 13.7632L18.1075 13.5051H18.722Z" fill="#FEFEFE"/>
<path fill-rule="evenodd" clip-rule="evenodd" d="M7.56808 5.42261C7.5413 5.55457 7.03955 7.93823 7.03814 7.94041C6.93015 8.42251 6.85175 8.76648 6.58466 8.98848C6.43333 9.11735 6.25645 9.17979 6.05138 9.17979C5.72175 9.17979 5.52972 9.01117 5.4973 8.69134L5.49114 8.58134C5.49114 8.58134 5.59156 7.93551 5.59156 7.93188C5.59156 7.93188 6.11815 5.75932 6.2124 5.47216C6.21716 5.45601 6.21857 5.44748 6.21998 5.43967C5.19516 5.44893 5.01352 5.43967 5.00119 5.42261C4.99432 5.44602 4.96877 5.58071 4.96877 5.58071L4.43126 8.02899L4.38527 8.23682L4.29578 8.91605C4.29578 9.11735 4.33436 9.28199 4.41064 9.42085C4.65571 9.86193 5.35425 9.92782 5.74923 9.92782C6.25838 9.92782 6.736 9.81655 7.05876 9.61307C7.619 9.272 7.76558 8.73889 7.8963 8.26514L7.9569 8.02191C7.9569 8.02191 8.49918 5.76585 8.59149 5.47216C8.59484 5.45601 8.59625 5.44748 8.60101 5.43967C7.85789 5.44748 7.6382 5.43967 7.56808 5.42261Z" fill="#FEFEFE"/>
<path fill-rule="evenodd" clip-rule="evenodd" d="M10.5642 9.90316C10.2014 9.89681 10.0721 9.89681 9.64752 9.92023L9.63167 9.88683C9.66813 9.71947 9.70813 9.55574 9.7446 9.38693L9.79692 9.15859C9.87532 8.80481 9.9516 8.39296 9.96059 8.26662C9.96887 8.19147 9.99441 8.00288 9.78441 8.00288C9.69632 8.00288 9.60418 8.04681 9.51063 8.09164C9.45954 8.28023 9.35648 8.8099 9.3068 9.05095C9.20162 9.55919 9.19528 9.61819 9.14789 9.86922L9.11758 9.90316C8.74321 9.89681 8.61248 9.89681 8.18173 9.92023L8.16235 9.88193C8.23388 9.58061 8.30559 9.27567 8.37429 8.97362C8.5554 8.1539 8.59874 7.8406 8.64754 7.42366L8.6826 7.39952C9.10314 7.33853 9.20497 7.32583 9.65985 7.23071L9.69844 7.27482L9.62832 7.53566C9.70601 7.4881 9.77965 7.44073 9.85735 7.39952C10.0721 7.29098 10.311 7.25848 10.4417 7.25848C10.6419 7.25848 10.8601 7.31584 10.9509 7.55345C11.037 7.76546 10.9798 8.02557 10.8663 8.53889L10.8078 8.80137C10.6915 9.37205 10.6722 9.47697 10.6068 9.86922L10.5642 9.90316Z" fill="#FEFEFE"/>
<path fill-rule="evenodd" clip-rule="evenodd" d="M12.0404 9.9036C11.8209 9.90215 11.6791 9.89725 11.5422 9.90215C11.4053 9.9036 11.2718 9.91068 11.0679 9.92066L11.057 9.90215L11.044 9.88236C11.0996 9.666 11.13 9.59085 11.1574 9.5137C11.1856 9.43638 11.2112 9.35978 11.2607 9.13996C11.3248 8.85281 11.3639 8.65278 11.3895 8.47707C11.4198 8.30681 11.4354 8.16214 11.4582 7.99478L11.474 7.98208L11.4913 7.96574C11.7094 7.93452 11.8477 7.91328 11.9895 7.88987C12.1326 7.87081 12.2765 7.84104 12.5022 7.79639L12.5105 7.81617L12.5166 7.83741C12.4754 8.01475 12.4321 8.19191 12.3907 8.37197C12.3509 8.55294 12.3082 8.72938 12.2696 8.90672C12.1884 9.28391 12.1553 9.42494 12.1361 9.52714C12.1169 9.62207 12.112 9.67453 12.0804 9.86966L12.0596 9.88726L12.0404 9.9036Z" fill="#FEFEFE"/>
<path fill-rule="evenodd" clip-rule="evenodd" d="M15.3036 8.61261C15.431 8.03684 15.3318 7.7682 15.2072 7.60429C15.018 7.35471 14.6835 7.27466 14.3368 7.27466C14.1282 7.27466 13.6313 7.2959 13.2432 7.66455C12.9645 7.93047 12.8357 8.29133 12.758 8.63748C12.6795 8.9898 12.5894 9.62437 13.1558 9.86053C13.3306 9.93785 13.5824 9.95909 13.7448 9.95909C14.1599 9.95909 14.5852 9.84147 14.9051 9.49187C15.1516 9.20816 15.2643 8.78632 15.3036 8.61261ZM14.3518 8.57248C14.3338 8.66977 14.2512 9.03062 14.1399 9.18455C14.062 9.29799 13.9699 9.36661 13.868 9.36661C13.8377 9.36661 13.6573 9.36661 13.6547 9.09088C13.6533 8.95475 13.6801 8.81571 13.7132 8.66469C13.8088 8.22869 13.9216 7.86275 14.21 7.86275C14.4357 7.86275 14.4522 8.13502 14.3518 8.57248Z" fill="#FEFEFE"/>
<path fill-rule="evenodd" clip-rule="evenodd" d="M24.1948 9.94176C23.7558 9.93813 23.6298 9.93813 23.2245 9.95592L23.1991 9.92197C23.3085 9.49215 23.4186 9.06395 23.5169 8.6294C23.6443 8.06562 23.6732 7.82602 23.7144 7.4962L23.7475 7.46861C24.1839 7.40472 24.305 7.38639 24.7584 7.2998L24.7715 7.33883C24.6883 7.69333 24.6071 8.04583 24.5259 8.40178C24.3594 9.14473 24.2988 9.52191 24.2348 9.91054L24.1948 9.94176Z" fill="#FEFEFE"/>
<path fill-rule="evenodd" clip-rule="evenodd" d="M24.4067 8.6647C24.534 8.09256 24.02 8.61369 23.9387 8.42509C23.8135 8.13013 23.8912 7.53313 23.3868 7.3331C23.1926 7.25432 22.737 7.35579 22.3456 7.72317C22.0702 7.98546 21.9381 8.34486 21.863 8.68956C21.7839 9.03698 21.6932 9.67156 22.2568 9.89773C22.4363 9.97651 22.5973 9.99974 22.7612 9.99139C23.3276 9.96017 23.759 9.07801 24.0792 8.72986C24.3254 8.45341 24.3688 8.8335 24.4067 8.6647ZM23.5401 8.62204C23.518 8.71552 23.4347 9.07928 23.3234 9.23175C23.249 9.34029 23.0721 9.40764 22.9703 9.40764C22.9414 9.40764 22.7631 9.40764 22.757 9.13682C22.7555 9.00195 22.7823 8.86309 22.8161 8.71062C22.9132 8.28242 23.0246 7.91994 23.3137 7.91994C23.5401 7.91994 23.6371 8.18386 23.5401 8.62204Z" fill="#FEFEFE"/>
<path fill-rule="evenodd" clip-rule="evenodd" d="M17.7899 9.90316C17.4252 9.89681 17.3007 9.89681 16.8747 9.92023L16.8588 9.88683C16.8953 9.71947 16.9365 9.55574 16.9744 9.38693L17.0239 9.15859C17.1037 8.80481 17.1801 8.39296 17.1877 8.26662C17.196 8.19147 17.2214 8.00288 17.013 8.00288C16.922 8.00288 16.8313 8.04681 16.7376 8.09164C16.6881 8.28023 16.5827 8.8099 16.5318 9.05095C16.43 9.55919 16.4224 9.61819 16.3764 9.86922L16.344 9.90316C15.9703 9.89681 15.8416 9.89681 15.4101 9.92023L15.3909 9.88193C15.4624 9.58061 15.534 9.27567 15.6028 8.97362C15.7838 8.1539 15.8252 7.8406 15.8761 7.42366L15.9083 7.39952C16.3282 7.33853 16.4321 7.32583 16.887 7.23071L16.922 7.27482L16.8567 7.53566C16.9317 7.4881 17.0082 7.44073 17.0845 7.39952C17.2978 7.29098 17.538 7.25848 17.6689 7.25848C17.8664 7.25848 18.0859 7.31584 18.1794 7.55345C18.264 7.76546 18.2062 8.02557 18.092 8.53889L18.035 8.80137C17.9152 9.37205 17.8979 9.47697 17.8339 9.86922L17.7899 9.90316Z" fill="#FEFEFE"/>
<path fill-rule="evenodd" clip-rule="evenodd" d="M21.3342 6.81788C21.2702 7.11647 21.0823 7.36733 20.8407 7.48858C20.6418 7.5915 20.3984 7.60003 20.1471 7.60003H19.9847L19.997 7.53269C19.997 7.53269 20.2963 6.19111 20.2951 6.19601L20.3046 6.12722L20.3089 6.07476L20.4285 6.08764C20.4285 6.08764 21.0458 6.1421 21.0602 6.14355C21.3039 6.24066 21.4043 6.49097 21.3342 6.81788ZM20.9414 5.41919C20.9392 5.41919 20.6385 5.4221 20.6385 5.4221C19.8526 5.4319 19.5374 5.42918 19.4079 5.41284C19.397 5.47165 19.3764 5.57657 19.3764 5.57657C19.3764 5.57657 19.0948 6.92087 19.0948 6.92305C19.0948 6.92305 18.4211 9.78119 18.3894 9.91588C19.0756 9.90753 19.357 9.90753 19.4754 9.92096C19.5023 9.78627 19.6613 8.98779 19.6627 8.98779C19.6627 8.98779 19.7981 8.40222 19.8064 8.3808C19.8064 8.3808 19.8491 8.31981 19.8917 8.29585H19.9544C20.5462 8.29585 21.2144 8.29585 21.7382 7.8987C22.0946 7.62642 22.3383 7.22437 22.447 6.73591C22.4753 6.61611 22.4959 6.47362 22.4959 6.33095C22.4959 6.1438 22.4595 5.95884 22.3541 5.81417C22.087 5.42918 21.5552 5.4221 20.9414 5.41919Z" fill="#FEFEFE"/>
<path fill-rule="evenodd" clip-rule="evenodd" d="M27.7867 7.29658L27.7516 7.25537C27.3029 7.34903 27.2217 7.36392 26.8094 7.42128L26.7791 7.4525C26.7777 7.45758 26.7765 7.46538 26.7744 7.47246L26.773 7.46538C26.4661 8.19489 26.4751 8.03752 26.2252 8.61184C26.2238 8.5857 26.2238 8.56936 26.2224 8.54159L26.1599 7.29658L26.1206 7.25537C25.6506 7.34903 25.6395 7.36392 25.2054 7.42128L25.1715 7.4525C25.1668 7.46738 25.1668 7.48372 25.164 7.50151L25.1668 7.50786C25.221 7.79356 25.208 7.72985 25.2624 8.18074C25.2878 8.402 25.3216 8.62454 25.347 8.84309C25.3898 9.20884 25.4138 9.3889 25.4661 9.94706C25.1729 10.4455 25.1035 10.6341 24.8213 11.0716L24.8393 11.1126C25.2624 11.0964 25.3607 11.0964 25.6747 11.0964L25.7427 11.0162C25.9802 10.4894 27.7867 7.29658 27.7867 7.29658Z" fill="#FEFEFE"/>
<path fill-rule="evenodd" clip-rule="evenodd" d="M12.4411 7.60508C12.6819 7.43282 12.7122 7.19522 12.51 7.07179C12.3049 6.94709 11.945 6.98684 11.7027 7.1591C11.4612 7.32791 11.4335 7.56751 11.6379 7.69366C11.8396 7.81491 12.201 7.77879 12.4411 7.60508Z" fill="#FEFEFE"/>
<path fill-rule="evenodd" clip-rule="evenodd" d="M25.7112 11.0605L25.3582 11.6839C25.2467 11.8972 25.0395 12.056 24.7098 12.0574L24.1484 12.0474L24.3122 11.4867H24.4223C24.4794 11.4867 24.5206 11.4838 24.5523 11.4675C24.5812 11.4577 24.6019 11.4343 24.6246 11.4002L24.8332 11.0605H25.7112Z" fill="#FEFEFE"/>
</svg>
