<svg width="34" height="20" viewBox="0 0 34 20" fill="none" xmlns="http://www.w3.org/2000/svg">
<rect width="34" height="20" rx="2" fill="white"/>
<path d="M17.3126 8.25249C17.2968 9.42933 18.422 10.0861 19.2696 10.4765C20.1405 10.8772 20.433 11.1341 20.4297 11.4923C20.4231 12.0407 19.735 12.2827 19.091 12.2921C17.9674 12.3086 17.3142 12.0053 16.7949 11.7759L16.3902 13.5663C16.9112 13.7934 17.876 13.9914 18.8765 14C21.225 14 22.7615 12.9041 22.7699 11.2048C22.779 9.04831 19.6145 8.9289 19.6361 7.96495C19.6436 7.67271 19.9386 7.36082 20.5851 7.28147C20.9051 7.24141 21.7884 7.21077 22.7898 7.64678L23.1829 5.91451C22.6444 5.72911 21.9521 5.55156 21.0904 5.55156C18.8799 5.55156 17.325 6.66241 17.3126 8.25249ZM26.9598 5.70083C26.531 5.70083 26.1695 5.9373 26.0083 6.30025L22.6535 13.8727L25.0003 13.8727L25.4673 12.6527H28.3352L28.6061 13.8727H30.6745L28.8695 5.70083H26.9598ZM27.2881 7.90839L27.9654 10.977H26.1105L27.2881 7.90839ZM14.4672 5.70083L12.6173 13.8727H14.8536L16.7026 5.70083H14.4672ZM11.1589 5.70083L8.83124 11.2629L7.88969 6.53357C7.77917 6.00564 7.34289 5.70083 6.8584 5.70083H3.05318L3 5.93808C3.78115 6.09835 4.66868 6.35681 5.20635 6.63335C5.53543 6.80225 5.62933 6.94995 5.73737 7.35139L7.52072 13.8727H9.88413L13.5074 5.70083H11.1589Z" fill="#1B5BA6"/>
</svg>
